<?xml version="1.0" encoding="UTF-8" standalone="no"?>
<!DOCTYPE svg PUBLIC "-//W3C//DTD SVG 1.1//EN" "http://www.w3.org/Graphics/SVG/1.1/DTD/svg11.dtd">
<svg width="100%" height="100%" viewBox="0 0 1078 733" version="1.1" xmlns="http://www.w3.org/2000/svg" xmlns:xlink="http://www.w3.org/1999/xlink" xml:space="preserve" xmlns:serif="http://www.serif.com/" style="fill-rule:evenodd;clip-rule:evenodd;stroke-linejoin:round;stroke-miterlimit:2;">
    <g transform="matrix(1,0,0,1,-702.355,-1337.46)">
        <g transform="matrix(0.546341,0,0,0.546551,-1181.31,1115.67)">
            <g id="bubblegum-vanilla---more-spacing" serif:id="bubblegum vanilla - more spacing" transform="matrix(2.25158,0,0,2.03289,376.346,-4551.27)">
                <path d="M1532.25,2749.85C1541.91,2749.85 1540.07,2724.87 1548.58,2724.87C1556.74,2724.87 1558.92,2749.85 1568.23,2749.85C1577.43,2749.85 1580.88,2732.35 1580.88,2709.77C1580.88,2682.96 1576.85,2666.73 1568.23,2666.73C1554.9,2666.73 1557.54,2700.46 1548.58,2700.46C1539.84,2700.46 1542.94,2666.73 1531.68,2666.73C1524.44,2666.73 1520.53,2681.27 1520.53,2708.22C1520.53,2731.65 1524.32,2749.85 1532.25,2749.85Z" style="fill-rule:nonzero;"/>
                <path d="M1621.45,2749.57C1639.62,2749.57 1654.1,2741.95 1654.1,2707.8C1654.1,2679.71 1646.05,2666.17 1621.45,2666.17C1599.84,2666.17 1589.27,2678.44 1589.27,2707.8C1589.27,2741.95 1602.83,2749.57 1621.45,2749.57ZM1626.05,2719.09C1617.66,2719.09 1611.68,2715.7 1611.68,2700.6C1611.68,2687.76 1616.28,2682.26 1626.05,2682.26C1637.09,2682.26 1640.3,2688.32 1640.3,2700.6C1640.3,2715.7 1633.98,2719.09 1626.05,2719.09Z" style="fill-rule:nonzero;"/>
                <path d="M1686.42,2749.57C1696.31,2749.57 1697.34,2736.16 1698.49,2720.5C1699.07,2711.89 1700.44,2699.33 1703.2,2695.1C1708.15,2687.48 1716.08,2687.19 1716.08,2678.73C1716.08,2672.52 1707.34,2666.31 1686.42,2666.31C1665.5,2666.31 1656.77,2672.52 1656.77,2678.73C1656.77,2687.05 1664.12,2687.76 1669.18,2694.53C1672.74,2699.33 1673.66,2711.47 1674.35,2720.5C1675.62,2736.16 1676.54,2749.57 1686.42,2749.57Z" style="fill-rule:nonzero;"/>
                <path d="M1774.93,2749.57C1790.79,2749.57 1808.84,2745.2 1809.99,2727.98C1810.79,2715.98 1803.44,2713.16 1803.44,2707.8C1803.44,2702.15 1809.64,2697.92 1808.38,2687.19C1806.88,2671.81 1787.69,2666.31 1774.93,2666.31C1762.17,2666.31 1743.89,2666.45 1745.62,2688.75C1746.65,2702.29 1746.77,2716.12 1745.62,2730.38C1743.78,2749.01 1759.99,2749.57 1774.93,2749.57ZM1771.83,2698.34C1764.7,2698.34 1758.84,2696.51 1758.84,2688.89C1758.84,2682.54 1761.94,2679.43 1771.83,2679.43C1780.56,2679.43 1784.82,2682.11 1784.82,2688.89C1784.82,2696.51 1779.64,2698.34 1771.83,2698.34ZM1778.84,2727.27C1771.6,2727.27 1765.73,2725.58 1765.73,2717.96C1765.73,2711.61 1769.07,2708.5 1778.84,2708.5C1787.57,2708.5 1791.83,2711.18 1791.83,2717.96C1791.83,2725.58 1786.54,2727.27 1778.84,2727.27Z" style="fill-rule:nonzero;"/>
                <path d="M1837.58,2749.57C1849.19,2749.57 1875.16,2748.44 1875.16,2736.59C1875.16,2724.45 1844.93,2732.35 1844.93,2723.32C1844.93,2714.43 1869.42,2718.38 1869.42,2708.36C1869.42,2694.67 1831.25,2703.99 1831.25,2693.55C1831.25,2683.81 1875.16,2692.28 1875.16,2678.87C1875.16,2667.3 1847.81,2666.31 1837.58,2666.31C1829.53,2666.31 1816.31,2667.72 1817.35,2688.75C1818.15,2703.99 1818.73,2714.85 1817.69,2730.38C1816.43,2748.3 1828.04,2749.57 1837.58,2749.57Z" style="fill-rule:nonzero;"/>
                <path d="M1935.76,2749.71C1944.15,2749.71 1947.95,2738.85 1947.95,2728.54C1947.95,2689.73 1933.01,2666.73 1913.92,2666.73C1895.65,2666.73 1880.13,2690.44 1880.13,2727.56C1880.13,2733.2 1880.93,2749.57 1890.93,2749.57C1902.08,2749.57 1901.97,2725.01 1910.59,2725.01C1918.18,2725.01 1923.58,2749.71 1935.76,2749.71ZM1913.81,2712.45C1907.03,2712.45 1901.51,2711.47 1901.51,2699.89C1901.51,2690.3 1906.68,2682.11 1913.81,2682.11C1920.59,2682.11 1926.11,2689.73 1926.11,2699.89C1926.11,2711.47 1921.05,2712.45 1913.81,2712.45Z" style="fill-rule:nonzero;"/>
                <path d="M1968.29,2749.85C1978.41,2749.85 1972.55,2725.44 1981.05,2725.44C1989.21,2725.44 1996.57,2749.85 2006.92,2749.85C2018.18,2749.85 2021.28,2734.47 2021.28,2709.77C2021.28,2685.08 2018.41,2666.73 2009.67,2666.73C1997.84,2666.73 2004.96,2701.16 1997.38,2701.16C1989.79,2701.16 1979.56,2666.73 1968.64,2666.73C1960.13,2666.73 1956.34,2680.84 1956.34,2708.22C1956.34,2737.15 1961.51,2749.85 1968.29,2749.85Z" style="fill-rule:nonzero;"/>
                <path d="M2057.95,2749.57C2076.11,2749.57 2084.62,2738.42 2084.62,2723.89C2084.62,2701.59 2058.99,2696.93 2058.99,2688.18C2058.99,2678.44 2078.76,2691.85 2082.09,2683.24C2085.2,2675.2 2073.93,2666.17 2056.92,2666.17C2040.71,2666.17 2033.01,2673.79 2033.01,2687.19C2033.01,2706.25 2058.53,2709.77 2055.65,2719.37C2052.66,2729.39 2031.74,2715.28 2028.07,2724.59C2025.19,2732.07 2035.88,2749.57 2057.95,2749.57Z" style="fill-rule:nonzero;"/>
                <path d="M1714.87,2875.86C1726.24,2875.86 1725.9,2842.83 1734.18,2842.83C1742.45,2842.83 1742.11,2875.86 1753.49,2875.86C1762.34,2875.86 1770.84,2861.74 1774.87,2834.37C1779.24,2805.44 1775.79,2792.74 1768.66,2792.74C1758.2,2792.74 1760.04,2821.38 1753.6,2821.38C1747.51,2821.38 1744.41,2792.74 1734.18,2792.74C1723.94,2792.74 1720.84,2821.38 1714.75,2821.38C1708.31,2821.38 1710.15,2792.74 1699.69,2792.74C1692.57,2792.74 1689.12,2805.44 1693.48,2834.37C1697.51,2861.74 1706.01,2875.86 1714.87,2875.86Z" style="fill-rule:nonzero;"/>
                <path d="M1803.72,2875.58C1815.33,2875.58 1841.31,2874.45 1841.31,2862.59C1841.31,2850.45 1811.08,2858.36 1811.08,2849.33C1811.08,2840.43 1835.56,2844.39 1835.56,2834.37C1835.56,2820.68 1797.4,2829.99 1797.4,2819.55C1797.4,2809.81 1841.31,2818.28 1841.31,2804.87C1841.31,2793.3 1813.95,2792.31 1803.72,2792.31C1795.67,2792.31 1782.45,2793.72 1783.49,2814.75C1784.29,2829.99 1784.87,2840.86 1783.83,2856.38C1782.57,2874.3 1794.18,2875.58 1803.72,2875.58Z" style="fill-rule:nonzero;"/>
                <path d="M1876.84,2875.58C1892.7,2875.58 1910.75,2871.2 1911.89,2853.98C1912.7,2841.99 1905.34,2839.16 1905.34,2833.8C1905.34,2828.16 1911.55,2823.92 1910.29,2813.2C1908.79,2797.82 1889.6,2792.31 1876.84,2792.31C1864.08,2792.31 1845.8,2792.45 1847.53,2814.75C1848.56,2828.3 1848.67,2842.13 1847.53,2856.38C1845.69,2875.01 1861.89,2875.58 1876.84,2875.58ZM1873.73,2824.35C1866.61,2824.35 1860.74,2822.51 1860.74,2814.89C1860.74,2808.54 1863.85,2805.44 1873.73,2805.44C1882.47,2805.44 1886.72,2808.12 1886.72,2814.89C1886.72,2822.51 1881.55,2824.35 1873.73,2824.35ZM1880.74,2853.28C1873.5,2853.28 1867.64,2851.58 1867.64,2843.96C1867.64,2837.61 1870.97,2834.51 1880.74,2834.51C1889.48,2834.51 1893.73,2837.19 1893.73,2843.96C1893.73,2851.58 1888.45,2853.28 1880.74,2853.28Z" style="fill-rule:nonzero;"/>
            </g>
            <g id="Design" transform="matrix(1.83036,0,0,1.82966,1097.1,-3830.85)">
                <path d="M1379.91,2607.39L1379.91,2607.4C1411.71,2644.24 1442.49,2691.53 1480.08,2722.74C1582.87,2808.07 1634.9,2851.84 1809.91,2851.82C1990.09,2851.8 2043.55,2816.48 2078.34,2797.66C2138.32,2765.22 2191.89,2726.38 2240.76,2677.78C2247.88,2670.7 2255.62,2659.01 2264.16,2647.22C2273.46,2634.41 2283.67,2621.51 2294.72,2613.2C2303.18,2606.84 2312.19,2603.08 2321.63,2603.12C2331.05,2603.16 2341.12,2606.91 2351.6,2616.61C2359.05,2623.51 2361.85,2632.26 2361.54,2641.4C2361.14,2653.4 2355.01,2666.13 2348.12,2674.83C2337.39,2688.38 2321.18,2695.61 2307.56,2705.68C2283.38,2723.56 2269.6,2750.63 2258.58,2777.92C2184.49,2961.48 2048.49,3030.08 1860.05,3045.41C1802.3,3050.11 1747.65,3047.34 1690.18,3036.67C1582.61,3016.69 1481.8,2955.73 1427.53,2861.13C1403.53,2819.29 1397.97,2769.69 1373.56,2728.67C1365.79,2715.61 1356.61,2703.78 1344.89,2694.01C1333.06,2684.16 1317.84,2675.88 1305.94,2665.35C1292.3,2653.3 1282.74,2638.55 1284.47,2616.94C1286.27,2594.63 1297.63,2581.84 1312.14,2577.14C1332.45,2570.57 1360.92,2580.74 1379.91,2607.39ZM1367.41,2616.7C1353.09,2596.43 1332.31,2586.99 1316.93,2591.96C1307.59,2594.99 1301.15,2603.82 1300,2618.19C1298.72,2634.12 1306.2,2644.8 1316.26,2653.68C1328.04,2664.11 1343.15,2672.28 1354.86,2682.04C1367.95,2692.95 1378.27,2706.11 1386.95,2720.7C1411.4,2761.79 1417,2811.47 1441.04,2853.38C1493.07,2944.06 1589.91,3002.2 1693.03,3021.35C1749.11,3031.76 1802.43,3034.47 1858.79,3029.89C2040.81,3015.08 2172.57,2949.39 2244.14,2772.09C2256.22,2742.16 2271.78,2712.76 2298.3,2693.15C2310.83,2683.89 2326.04,2677.62 2335.91,2665.15C2340.16,2659.79 2344.15,2652.41 2345.52,2644.95C2346.64,2638.85 2345.96,2632.62 2341.02,2628.04C2334.14,2621.67 2327.76,2618.72 2321.56,2618.7C2311.79,2618.66 2303.1,2625.39 2294.82,2634.01C2278.25,2651.28 2264.03,2676.61 2251.75,2688.82C2201.8,2738.49 2147.05,2778.21 2085.75,2811.37C2049.99,2830.71 1995.12,2867.38 1809.92,2867.4C1629.68,2867.42 1575.99,2822.6 1470.13,2734.73C1431.82,2702.92 1400.3,2654.8 1367.88,2617.3C1367.71,2617.11 1367.56,2616.91 1367.41,2616.7Z"/>
                <g transform="matrix(0.794558,0.174799,-0.174799,0.794558,747.867,289.49)">
                    <path d="M1416.61,2658.11C1413.24,2662.17 1407.2,2662.74 1403.13,2659.37C1399.07,2656 1398.5,2649.96 1401.87,2645.89C1419.33,2624.82 1443.58,2595.98 1470.79,2587.6C1475.84,2586.04 1481.2,2588.88 1482.76,2593.93C1484.31,2598.98 1481.47,2604.34 1476.42,2605.9C1452.49,2613.27 1431.97,2639.57 1416.61,2658.11Z"/>
                </g>
                <path d="M2276.18,2645.41C2279.45,2648.19 2279.86,2653.11 2277.08,2656.39C2274.3,2659.66 2269.38,2660.07 2266.1,2657.29C2243.6,2638.2 2208.7,2610.1 2179.08,2604.57C2174.86,2603.78 2172.07,2599.71 2172.86,2595.49C2173.65,2591.26 2177.72,2588.47 2181.95,2589.26C2213.87,2595.22 2251.92,2624.83 2276.18,2645.41Z"/>
                <path d="M1676.99,2523.4C1673.53,2525.95 1668.65,2525.2 1666.1,2521.74C1663.55,2518.28 1664.29,2513.4 1667.76,2510.85C1684.42,2498.58 1692.3,2488.19 1695.38,2478.12C1698.45,2468.05 1696.77,2458.54 1695.35,2448.52C1693.05,2432.27 1691.04,2414.92 1701.99,2393.32C1709.17,2379.15 1722.2,2368.29 1733.85,2356.8C1743.53,2347.25 1752.31,2337.27 1753.14,2322.88C1753.39,2318.59 1757.07,2315.31 1761.36,2315.55C1765.65,2315.8 1768.94,2319.49 1768.69,2323.78C1767.63,2342.28 1757.23,2355.61 1744.79,2367.88C1734.34,2378.2 1722.32,2387.65 1715.89,2400.36C1704.23,2423.37 1710.61,2440.78 1712.22,2457.71C1714.14,2477.98 1711.48,2498 1676.99,2523.4Z"/>
                <path d="M1822.46,2528.14C1818.85,2530.47 1814.03,2529.44 1811.69,2525.83C1809.35,2522.22 1810.39,2517.4 1814,2515.06C1843.93,2495.67 1855.95,2468.7 1851.66,2432.92C1849.91,2418.27 1846.83,2402.88 1850.53,2388.27C1854.01,2374.52 1862.34,2363.56 1871.09,2352.81C1878.52,2343.67 1886.3,2334.72 1890.04,2323.37C1891.39,2319.28 1895.8,2317.06 1899.88,2318.41C1903.96,2319.76 1906.18,2324.16 1904.84,2328.25C1900.49,2341.42 1891.8,2352.03 1883.17,2362.64C1875.86,2371.63 1868.54,2380.6 1865.63,2392.1C1862.39,2404.85 1865.6,2418.27 1867.13,2431.07C1872.2,2473.37 1857.86,2505.21 1822.46,2528.14Z"/>
                <path d="M1961.36,2533.91C1957.54,2535.87 1952.84,2534.36 1950.88,2530.54C1948.91,2526.71 1950.42,2522.01 1954.25,2520.05C1974.17,2509.83 1985.51,2500.22 1990.59,2487.3C1995.82,2473.99 1994.57,2457.66 1990.69,2435.03C1988.5,2422.19 1985.02,2408.23 1987.31,2395.16C1989.71,2381.51 1996.93,2370.23 2004.77,2359.25C2011.46,2349.88 2018.64,2340.76 2022.13,2329.8C2023.43,2325.7 2027.82,2323.44 2031.91,2324.74C2036.01,2326.05 2038.28,2330.43 2036.98,2334.53C2033,2347.03 2025.08,2357.6 2017.45,2368.3C2010.96,2377.39 2004.64,2386.55 2002.66,2397.86C2000.67,2409.19 2004.14,2421.26 2006.05,2432.4C2010.54,2458.64 2011.15,2477.57 2005.09,2493C1998.87,2508.82 1985.74,2521.41 1961.36,2533.91Z"/>
            </g>
        </g>
    </g>
</svg>
