<?xml version="1.0" encoding="UTF-8" standalone="no"?>
<!DOCTYPE svg PUBLIC "-//W3C//DTD SVG 1.1//EN" "http://www.w3.org/Graphics/SVG/1.1/DTD/svg11.dtd">
<svg width="100%" height="100%" viewBox="0 0 610 647" version="1.1" xmlns="http://www.w3.org/2000/svg" xmlns:xlink="http://www.w3.org/1999/xlink" xml:space="preserve" xmlns:serif="http://www.serif.com/" style="fill-rule:evenodd;clip-rule:evenodd;stroke-linejoin:round;stroke-miterlimit:2;">
    <g transform="matrix(1,0,0,1,-847.905,-586.989)">
        <rect x="797.448" y="494.176" width="743.49" height="801.367" style="fill:none;"/>
    </g>
    <g id="Artboard1" transform="matrix(39.9387,0,0,35.4338,-22205.5,-4326.71)">
        <rect x="555.99" y="122.107" width="15.251" height="18.246" style="fill:none;"/>
        <clipPath id="_clip1">
            <rect x="555.99" y="122.107" width="15.251" height="18.246"/>
        </clipPath>
        <g clip-path="url(#_clip1)">
            <g id="Background" transform="matrix(0.0250384,0,0,0.0282217,539.589,104.103)">
            </g>
            <g transform="matrix(0.0250384,0,0,0.0282217,534.003,105.867)">
                <path d="M1162.69,986.646C1165.35,988.367 1166.1,991.919 1164.38,994.573C1162.66,997.227 1159.11,997.984 1156.45,996.263C1138.62,984.696 1043.4,931.723 997.316,913.038C990.702,910.356 985.151,908.393 981.061,907.432C979.351,907.03 978.077,906.674 977.26,906.865C960.811,910.718 948.587,926.445 940.246,940.107C896.847,1011.18 936.135,1108.48 1005.71,1146.85C1061.14,1177.42 1157.75,1197.56 1244.12,1192.49C1301.01,1189.16 1353.51,1174.98 1386.39,1145.03C1410.2,1123.35 1434.27,1093.38 1442.37,1061.75C1458.51,998.796 1412.64,925.748 1345.64,922.488C1312.95,920.898 1288.93,937.609 1265.38,955.801C1240.05,975.372 1215.24,996.641 1182.67,1002.64C1179.56,1003.21 1176.57,1001.15 1176,998.04C1175.42,994.929 1177.49,991.938 1180.6,991.365C1211.32,985.708 1234.48,965.195 1258.38,946.73C1284.06,926.884 1310.54,909.304 1346.19,911.039C1420.21,914.641 1471.3,995.05 1453.48,1064.59C1444.84,1098.3 1419.47,1130.41 1394.11,1153.51C1359.55,1184.98 1304.58,1200.43 1244.79,1203.93C1156.15,1209.13 1057.06,1188.26 1000.17,1156.89C925.291,1115.59 883.753,1010.63 930.463,934.134C940.281,918.054 955.285,900.24 974.646,895.705C976.208,895.339 978.468,895.288 981.337,895.789C986.007,896.604 993.02,898.927 1001.62,902.415C1048.27,921.327 1144.64,974.939 1162.69,986.646Z"/>
                <path d="M921.508,654.76C935.996,670.5 950.556,684.234 972.234,688.285C993.529,692.265 1011.27,689.433 1028.05,687.554C1055.44,684.487 1080.47,683.658 1112.74,712.778C1127.4,726.005 1139.67,741.677 1152.41,756.687C1156.17,761.119 1159.96,765.538 1163.98,769.736C1172.55,730.176 1201.84,694.188 1239.95,679.846C1257.16,673.367 1275.48,671.297 1290.93,660.425C1306.72,649.314 1315.02,629.849 1326.94,615.084C1331.37,609.599 1335.85,604.156 1340.26,598.651C1341.31,597.329 1343.32,594.096 1344.43,592.609C1345.24,591.543 1345.98,590.889 1346.38,590.61C1348.88,588.854 1351.06,589.493 1352.34,590.127C1353.2,590.556 1356.69,592.469 1355.24,597.442C1346.16,628.553 1334.56,652.554 1335.78,686.254C1336.89,716.968 1348.94,746.163 1353.54,776.347C1361.32,827.419 1338.14,891.129 1280.41,900.364C1262.13,903.288 1244.11,897.783 1226.06,896.157C1222.91,895.873 1220.58,893.085 1220.87,889.935C1221.15,886.784 1223.94,884.457 1227.09,884.741C1244.2,886.283 1261.27,891.818 1278.6,889.046C1329.89,880.841 1349.12,823.447 1342.21,778.073C1337.54,747.457 1325.45,717.82 1324.33,686.667C1323.46,662.694 1328.68,643.407 1335.08,623.257C1322.91,638.686 1313.84,658.327 1297.53,669.799C1281.27,681.244 1262.11,683.753 1243.99,690.573C1206.2,704.797 1178.03,742.554 1173.51,782.294C1173.19,785.094 1171.78,786.417 1170.72,787.134C1169.26,788.122 1167.52,788.52 1165.49,787.908C1164.58,787.632 1163.25,786.94 1161.95,785.563C1160.37,783.886 1158.04,780.073 1156.55,778.546C1152.05,773.92 1147.85,769.023 1143.67,764.104C1131.26,749.48 1119.34,734.175 1105.06,721.288C1076.22,695.267 1053.8,696.204 1029.32,698.945C1011.52,700.938 992.712,703.773 970.129,699.552C952.796,696.313 939.374,687.782 927.208,676.75C933.807,694.977 939.727,713.174 944.166,732.301C951.756,765.001 959.392,796.824 971.366,823.323C982.879,848.802 998.376,869.305 1022.21,880.312C1042.83,889.832 1069.53,892.21 1104.86,885.142C1107.96,884.521 1110.99,886.536 1111.61,889.637C1112.23,892.739 1110.21,895.761 1107.11,896.381C1068.75,904.055 1039.79,901.054 1017.41,890.718C991.075,878.559 973.639,856.19 960.921,828.043C948.664,800.918 940.77,768.365 933.001,734.893C927.368,710.625 919.281,687.892 910.489,664.638C910.084,663.565 907.201,656.399 907.15,654.376C907.095,652.182 908,650.769 908.77,649.941C911.153,647.377 913.631,647.327 915.979,648.282C916.933,648.67 917.998,649.385 918.945,650.552C919.75,651.544 921.343,654.459 921.508,654.76Z"/>
                <path d="M1168.5,914.081C1168.87,912.15 1169.25,910.176 1169.82,908.907C1173.76,900.211 1177.75,891.552 1181.9,882.951C1186.05,874.347 1209.39,825.147 1230.23,800.196C1235.84,793.48 1241.33,788.5 1246.21,786.297C1250.07,784.556 1253.63,784.439 1256.77,786.089C1257.39,786.414 1257.99,786.982 1258.05,788.076C1258.06,788.238 1258.02,789.038 1257.37,790.126C1255.08,793.948 1242.25,812.483 1240.69,814.593C1228.89,830.553 1216.63,846.525 1206.97,863.905C1180.09,912.28 1172.16,970.06 1173.24,1024.75C1173.26,1026.08 1172.21,1027.17 1170.88,1027.2C1169.56,1027.22 1168.46,1026.17 1168.44,1024.85C1167.35,969.323 1175.49,910.685 1202.78,861.574C1212.54,844.014 1224.91,827.867 1236.84,811.741C1238.18,809.926 1247.99,795.777 1251.95,789.719C1250.76,789.728 1249.5,790.076 1248.18,790.67C1243.79,792.65 1238.95,797.235 1233.91,803.272C1213.33,827.916 1190.32,876.536 1186.22,885.035C1182.09,893.601 1178.12,902.225 1174.19,910.887C1173.61,912.171 1173.34,914.314 1172.95,916.228C1172.62,917.902 1172.2,919.435 1171.66,920.437C1170.94,921.767 1169.93,922.452 1168.85,922.624C1168.09,922.744 1167.21,922.64 1166.22,922.038C1165.51,921.601 1165.06,920.972 1164.83,920.185C1164.68,919.683 1164.77,918.997 1164.64,918.479C1157.54,889.463 1148.4,861.886 1125.37,841.582C1116.22,833.507 1105.8,827.673 1094.91,822.254C1091.48,820.544 1088.01,818.905 1084.52,817.312C1088.95,823.213 1094.5,828.712 1100.21,834.117C1108.25,841.724 1116.62,849.141 1122.87,857.111C1163.27,908.568 1159.22,966.134 1156.71,1028.19C1156.65,1029.52 1155.54,1030.55 1154.21,1030.49C1152.89,1030.44 1151.86,1029.32 1151.91,1028C1154.38,967.112 1158.74,910.559 1119.1,860.074C1112.98,852.278 1104.78,845.043 1096.92,837.602C1088.78,829.907 1081.01,821.988 1076.03,813.117C1075.33,811.887 1075.55,810.996 1075.73,810.541C1076.08,809.66 1076.78,808.971 1078.06,808.926C1078.46,808.912 1079.17,809.028 1080.02,809.416C1081.59,810.128 1084.46,812.015 1085.89,812.667C1089.64,814.371 1093.37,816.125 1097.05,817.958C1108.32,823.566 1119.08,829.629 1128.55,837.983C1151.47,858.2 1161.25,885.308 1168.5,914.081Z"/>
                <path d="M1214.4,1027.71C1213.15,1028.17 1211.77,1027.54 1211.31,1026.3C1210.85,1025.06 1211.48,1023.67 1212.72,1023.21C1228.7,1017.26 1245.73,1013.9 1261.09,1006.4C1270.56,1001.78 1281.06,991.06 1291.86,983.265C1299.59,977.688 1307.5,973.605 1315.25,973.633C1320.81,973.652 1325.09,976.939 1327.75,981.653C1331.5,988.304 1331.86,997.776 1328.39,1003.61C1318.77,1019.81 1303.55,1027.03 1286.28,1032.92C1262.92,1040.89 1230.34,1046.15 1207.77,1033.18C1206.62,1032.53 1206.22,1031.06 1206.88,1029.91C1207.54,1028.76 1209.01,1028.37 1210.15,1029.02C1231.6,1041.34 1262.55,1035.95 1284.73,1028.38C1300.89,1022.87 1315.26,1016.32 1324.27,1001.16C1326.98,996.601 1326.5,989.208 1323.57,984.011C1321.77,980.826 1318.99,978.444 1315.23,978.431C1306.59,978.4 1297.87,984.433 1289.33,991.228C1280.18,998.51 1271.3,1006.76 1263.2,1010.71C1247.69,1018.28 1230.52,1021.71 1214.4,1027.71Z"/>
                <path d="M1000.51,971.266C1000.51,971.136 1000.53,971.004 1000.56,970.873C1000.85,969.629 1002.1,968.852 1003.34,969.14C1010.32,970.755 1015.83,972.917 1021.92,976.642C1025.76,978.989 1029.44,981.516 1033.04,984.222C1035.3,985.921 1042.52,992.695 1044.45,998.017C1045.36,1000.51 1045.22,1002.76 1043.92,1004.48C1042.79,1005.98 1040.57,1007.24 1036.58,1007.48C1028.87,1007.95 1019.88,1003.06 1012.74,996.068C1005.67,989.154 1000.46,980.271 999.843,973.097C999.782,972.391 1000.05,971.732 1000.51,971.266ZM1004.66,974.235C1005.77,980.219 1010.26,987.175 1015.97,992.761C1022.1,998.761 1029.67,1003.27 1036.3,1002.86C1038.36,1002.74 1039.64,1002.47 1040.23,1001.69C1040.48,1001.36 1040.44,1000.92 1040.35,1000.45C1040.17,999.52 1039.67,998.508 1039.04,997.47C1036.56,993.408 1031.89,989.149 1030.26,987.92C1026.78,985.304 1023.22,982.859 1019.51,980.59C1014.57,977.572 1010.05,975.666 1004.66,974.235Z"/>
                <path d="M1063.2,1005.37C1063.49,1004.6 1064.18,1004 1065.05,1003.88C1069.5,1003.25 1073.89,1002.05 1078.36,1001.59C1081.58,1001.26 1083.75,1003.39 1084.69,1006.71C1085.78,1010.53 1085.04,1015.88 1083.71,1017.89C1081.35,1021.44 1077.29,1021.49 1073.08,1019.3C1068.02,1016.68 1062.87,1010.87 1061.92,1008.29C1061.5,1007.13 1062.07,1005.84 1063.2,1005.37ZM1067.15,1008.24C1068.76,1010.46 1072.06,1013.56 1075.21,1015.19C1076.14,1015.68 1077.05,1016.03 1077.91,1016.13C1078.68,1016.22 1079.38,1016.04 1079.85,1015.33C1080.15,1014.87 1080.34,1014.09 1080.47,1013.2C1080.71,1011.56 1080.69,1009.58 1080.24,1007.98C1080.08,1007.43 1079.89,1006.94 1079.6,1006.56C1079.41,1006.32 1079.17,1006.16 1078.83,1006.19C1074.91,1006.6 1071.05,1007.59 1067.15,1008.24Z"/>
            </g>
        </g>
    </g>
</svg>
