<?xml version="1.0" encoding="UTF-8" standalone="no"?>
<!DOCTYPE svg PUBLIC "-//W3C//DTD SVG 1.1//EN" "http://www.w3.org/Graphics/SVG/1.1/DTD/svg11.dtd">
<svg width="100%" height="100%" viewBox="0 0 187 209" version="1.1" xmlns="http://www.w3.org/2000/svg" xmlns:xlink="http://www.w3.org/1999/xlink" xml:space="preserve" xmlns:serif="http://www.serif.com/" style="fill-rule:evenodd;clip-rule:evenodd;stroke-linejoin:round;stroke-miterlimit:2;">
    <g transform="matrix(1,0,0,1,-943.982,-947.91)">
        <g transform="matrix(0.339121,0,0,0.339121,636.349,747.989)">
            <path d="M1158.37,991.247C1134.94,977.7 993.07,897.275 975.953,901.285C964.823,903.892 955.351,911.36 947.595,920.209C942.874,925.596 938.79,931.494 935.354,937.12C890.3,1010.91 930.713,1112.04 1002.94,1151.87C1096.54,1203.49 1305.95,1226.04 1390.25,1149.27C1414.84,1126.88 1439.55,1095.84 1447.92,1063.17C1464.9,996.923 1416.43,920.194 1345.92,916.764C1277.57,913.438 1233.13,985.347 1169.84,997.002" style="fill:rgb(242,92,5);"/>
            <path d="M1161.24,986.285C1163.98,987.869 1164.91,991.377 1163.33,994.115C1161.75,996.854 1158.24,997.791 1155.5,996.208C1139.15,986.754 1064.94,944.625 1016.03,921.572C1003.69,915.754 992.994,911.16 985.322,908.681C983,907.931 980.985,907.382 979.321,907.084C978.435,906.926 977.746,906.751 977.26,906.865C967.272,909.205 958.865,916.045 951.905,923.987C947.406,929.12 943.52,934.745 940.246,940.107C896.847,1011.18 936.135,1108.48 1005.71,1146.85C1061.14,1177.42 1157.75,1197.56 1244.12,1192.49C1301.01,1189.16 1353.51,1174.98 1386.39,1145.03C1410.2,1123.35 1434.27,1093.38 1442.37,1061.75C1458.51,998.796 1412.64,925.748 1345.64,922.488C1312.76,920.888 1285.76,937.687 1259.24,955.983C1231,975.467 1203.3,996.668 1170.88,1002.64C1167.77,1003.21 1164.78,1001.15 1164.2,998.04C1163.63,994.929 1165.69,991.938 1168.8,991.365C1199.67,985.681 1225.84,965.101 1252.73,946.548C1281.34,926.807 1310.73,909.313 1346.19,911.039C1420.21,914.641 1471.3,995.05 1453.48,1064.59C1444.84,1098.3 1419.47,1130.41 1394.11,1153.51C1359.55,1184.98 1304.58,1200.43 1244.79,1203.93C1156.15,1209.13 1057.06,1188.26 1000.17,1156.89C925.291,1115.59 883.753,1010.63 930.463,934.134C934.06,928.243 938.342,922.071 943.285,916.432C951.837,906.674 962.374,898.58 974.646,895.705C976.216,895.337 978.475,895.289 981.337,895.801C985.977,896.63 992.924,898.981 1001.44,902.505C1047.46,921.554 1142.42,975.403 1161.24,986.285Z" style="fill:rgb(242,92,5);"/>
            <path d="M1191.78,890.449C1194.83,890.724 1210.38,891.118 1214.58,891.566C1234.55,893.698 1264.79,897.059 1279.5,894.705C1334.01,885.985 1355.22,825.432 1347.87,777.21C1343.24,746.81 1331.17,717.394 1330.05,686.461C1328.81,652.086 1340.48,627.57 1349.74,595.837C1350.5,593.238 1346.42,600.117 1344.73,602.231C1340.32,607.743 1335.84,613.194 1331.4,618.685C1319.15,633.852 1310.45,653.699 1294.23,665.112C1278.38,676.27 1259.64,678.56 1241.97,685.21C1202.23,700.168 1172.57,739.852 1167.81,781.646C1167.43,784.984 1163,776.956 1160.66,774.549C1156.25,770.016 1152.13,765.215 1148.04,760.396C1135.46,745.579 1123.37,730.09 1108.9,717.033C1057.97,671.083 1026.03,704.169 971.182,693.919C948.168,689.618 932.572,675.252 917.191,658.533C915.767,656.985 914.4,652.303 912.967,653.843C912.317,654.542 915.479,661.629 915.85,662.611C924.733,686.106 932.893,709.078 938.584,733.597C960.525,828.128 1017.96,912.381 1140.78,887.813" style="fill:rgb(242,92,5);"/>
            <path d="M921.508,654.76C935.996,670.5 950.556,684.234 972.234,688.285C993.529,692.265 1011.27,689.433 1028.05,687.554C1055.44,684.487 1080.47,683.658 1112.74,712.778C1127.4,726.005 1139.67,741.677 1152.41,756.687C1156.17,761.119 1159.96,765.538 1163.98,769.736C1172.55,730.176 1201.84,694.188 1239.95,679.846C1257.16,673.367 1275.48,671.297 1290.93,660.425C1306.72,649.314 1315.02,629.849 1326.94,615.084C1331.37,609.599 1335.85,604.156 1340.26,598.651C1341.31,597.329 1343.32,594.096 1344.43,592.609C1345.24,591.543 1345.98,590.889 1346.38,590.61C1348.88,588.854 1351.06,589.493 1352.34,590.127C1353.2,590.556 1356.69,592.469 1355.24,597.442C1346.16,628.553 1334.56,652.554 1335.78,686.254C1336.89,716.968 1348.94,746.163 1353.54,776.347C1361.32,827.419 1338.14,891.129 1280.41,900.364C1265.35,902.772 1234.41,899.447 1213.97,897.265C1209.78,896.819 1194.31,896.431 1191.26,896.157C1188.11,895.873 1185.79,893.085 1186.07,889.935C1186.35,886.784 1189.14,884.457 1192.29,884.741C1195.36,885.017 1210.96,885.417 1215.18,885.868C1234.7,887.95 1264.23,891.345 1278.6,889.046C1329.89,880.841 1349.12,823.447 1342.21,778.073C1337.54,747.457 1325.45,717.82 1324.33,686.667C1323.46,662.694 1328.68,643.407 1335.08,623.257C1322.91,638.686 1313.84,658.327 1297.53,669.799C1281.27,681.244 1262.11,683.753 1243.99,690.573C1206.2,704.797 1178.03,742.554 1173.51,782.294C1173.19,785.094 1171.78,786.417 1170.72,787.134C1169.26,788.122 1167.52,788.52 1165.49,787.908C1164.58,787.632 1163.25,786.94 1161.95,785.563C1160.37,783.886 1158.04,780.073 1156.55,778.546C1152.05,773.92 1147.85,769.023 1143.67,764.104C1131.26,749.48 1119.34,734.175 1105.06,721.288C1076.22,695.267 1053.8,696.204 1029.32,698.945C1011.52,700.938 992.712,703.773 970.129,699.552C952.796,696.313 939.374,687.782 927.208,676.75C933.807,694.977 939.727,713.174 944.166,732.301C956.974,787.48 981.938,839.226 1025.89,866.498C1054.94,884.525 1092.27,891.673 1139.66,882.193C1142.76,881.573 1145.78,883.587 1146.4,886.689C1147.02,889.79 1145.01,892.812 1141.91,893.433C1091.04,903.607 1051.03,895.587 1019.85,876.237C973.441,847.443 946.523,793.152 933.001,734.893C927.368,710.625 919.281,687.892 910.489,664.638C910.084,663.565 907.201,656.399 907.15,654.376C907.095,652.182 908,650.769 908.77,649.941C911.153,647.377 913.631,647.327 915.979,648.282C916.933,648.67 917.998,649.385 918.945,650.552C919.75,651.544 921.343,654.459 921.508,654.76Z" style="fill:rgb(242,92,5);"/>
            <path d="M1154.31,1028.1C1156.8,966.623 1161.01,909.564 1120.99,858.592C1108.61,842.826 1087.86,829.288 1078.12,811.942C1076.91,809.797 1082.66,813.833 1084.9,814.851C1088.62,816.543 1092.32,818.285 1095.98,820.106C1107.06,825.619 1117.65,831.568 1126.96,839.782C1150.37,860.424 1159.76,888.412 1166.97,917.909C1167.14,918.602 1166.87,919.619 1167.48,919.991C1170.62,921.916 1170.49,913.257 1172.01,909.897C1175.94,901.218 1179.92,892.577 1184.06,883.993C1189.95,871.777 1234.72,777.197 1255.65,788.212C1256.01,788.398 1240.49,810.84 1238.77,813.167C1226.9,829.21 1214.58,845.269 1204.87,862.739C1177.79,911.483 1169.76,969.692 1170.84,1024.8" style="fill:rgb(254,238,0);"/>
            <path d="M1168.5,914.081C1168.87,912.15 1169.25,910.176 1169.82,908.907C1173.76,900.211 1177.75,891.552 1181.9,882.951C1186.05,874.347 1209.39,825.147 1230.23,800.196C1235.84,793.48 1241.33,788.5 1246.21,786.297C1250.07,784.556 1253.63,784.439 1256.77,786.089C1257.39,786.414 1257.99,786.982 1258.05,788.076C1258.06,788.238 1258.02,789.038 1257.37,790.126C1255.08,793.948 1242.25,812.483 1240.69,814.593C1228.89,830.553 1216.63,846.525 1206.97,863.905C1180.09,912.28 1172.16,970.06 1173.24,1024.75C1173.26,1026.08 1172.21,1027.17 1170.88,1027.2C1169.56,1027.22 1168.46,1026.17 1168.44,1024.85C1167.35,969.323 1175.49,910.685 1202.78,861.574C1212.54,844.014 1224.91,827.867 1236.84,811.741C1238.18,809.926 1247.99,795.777 1251.95,789.719C1250.76,789.728 1249.5,790.076 1248.18,790.67C1243.79,792.65 1238.95,797.235 1233.91,803.272C1213.33,827.916 1190.32,876.536 1186.22,885.035C1182.09,893.601 1178.12,902.225 1174.19,910.887C1173.61,912.171 1173.34,914.314 1172.95,916.228C1172.62,917.902 1172.2,919.435 1171.66,920.437C1170.94,921.767 1169.93,922.452 1168.85,922.624C1168.09,922.744 1167.21,922.64 1166.22,922.038C1165.51,921.601 1165.06,920.972 1164.83,920.185C1164.68,919.683 1164.77,918.997 1164.64,918.479C1157.54,889.463 1148.4,861.886 1125.37,841.582C1116.22,833.507 1105.8,827.673 1094.91,822.254C1091.48,820.544 1088.01,818.905 1084.52,817.312C1088.95,823.213 1094.5,828.712 1100.21,834.117C1108.25,841.724 1116.62,849.141 1122.87,857.111C1163.27,908.568 1159.22,966.134 1156.71,1028.19C1156.65,1029.52 1155.54,1030.55 1154.21,1030.49C1152.89,1030.44 1151.86,1029.32 1151.91,1028C1154.38,967.112 1158.74,910.559 1119.1,860.074C1112.98,852.278 1104.78,845.043 1096.92,837.602C1088.78,829.907 1081.01,821.988 1076.03,813.117C1075.33,811.887 1075.55,810.996 1075.73,810.541C1076.08,809.66 1076.78,808.971 1078.06,808.926C1078.46,808.912 1079.17,809.028 1080.02,809.416C1081.59,810.128 1084.46,812.015 1085.89,812.667C1089.64,814.371 1093.37,816.125 1097.05,817.958C1108.32,823.566 1119.08,829.629 1128.55,837.983C1151.47,858.2 1161.25,885.308 1168.5,914.081Z" style="fill:rgb(254,238,0);"/>
            <path d="M1208.96,1031.11C1225.01,1025.13 1246.71,1016.09 1262.14,1008.56C1278.09,1000.77 1297.01,975.967 1315.24,976.032C1326.89,976.073 1331.47,993.726 1326.33,1002.38C1317.01,1018.07 1302.22,1024.95 1285.5,1030.65C1279.77,1032.61 1273.47,1034.4 1266.9,1035.8C1247.36,1039.96 1225.43,1040.56 1208.96,1031.11Z" style="fill:white;"/>
            <path d="M1208.12,1028.86C1224.11,1022.91 1245.72,1013.91 1261.09,1006.4C1270.56,1001.78 1281.06,991.06 1291.86,983.265C1299.59,977.688 1307.5,973.605 1315.25,973.633C1320.81,973.652 1325.09,976.939 1327.75,981.653C1331.5,988.304 1331.86,997.776 1328.39,1003.61C1318.77,1019.81 1303.55,1027.03 1286.28,1032.92C1280.46,1034.9 1274.07,1036.73 1267.4,1038.15C1247.29,1042.43 1224.72,1042.92 1207.77,1033.18C1206.96,1032.72 1206.49,1031.83 1206.57,1030.91C1206.65,1029.98 1207.25,1029.18 1208.12,1028.86ZM1214.93,1031.41C1230.23,1038.04 1249.27,1037.1 1266.4,1033.46C1272.88,1032.08 1279.08,1030.31 1284.73,1028.38C1300.89,1022.87 1315.26,1016.32 1324.27,1001.16C1326.98,996.601 1326.5,989.208 1323.57,984.011C1321.77,980.826 1318.99,978.444 1315.23,978.431C1306.59,978.4 1297.87,984.433 1289.33,991.228C1280.18,998.51 1271.3,1006.76 1263.2,1010.71C1249.29,1017.5 1230.32,1025.51 1214.93,1031.41Z" style="fill:white;"/>
            <path d="M1002.82,971.394C1009.54,972.949 1014.85,975.029 1020.72,978.616C1024.49,980.924 1028.11,983.41 1031.65,986.071C1035.13,988.695 1051.54,1004.26 1036.44,1005.17C1022.1,1006.04 1003.31,986.373 1002.15,972.897" style="fill:white;"/>
            <path d="M1000.51,971.266C1000.51,971.136 1000.53,971.004 1000.56,970.873C1000.85,969.629 1002.1,968.852 1003.34,969.14C1010.32,970.755 1015.83,972.917 1021.92,976.642C1025.76,978.989 1029.44,981.516 1033.04,984.222C1035.3,985.921 1042.52,992.695 1044.45,998.017C1045.36,1000.51 1045.22,1002.76 1043.92,1004.48C1042.79,1005.98 1040.57,1007.24 1036.58,1007.48C1028.87,1007.95 1019.88,1003.06 1012.74,996.068C1005.67,989.154 1000.46,980.271 999.843,973.097C999.782,972.391 1000.05,971.732 1000.51,971.266ZM1004.66,974.235C1005.77,980.219 1010.26,987.175 1015.97,992.761C1022.1,998.761 1029.67,1003.27 1036.3,1002.86C1038.36,1002.74 1039.64,1002.47 1040.23,1001.69C1040.48,1001.36 1040.44,1000.92 1040.35,1000.45C1040.17,999.52 1039.67,998.508 1039.04,997.47C1036.56,993.408 1031.89,989.149 1030.26,987.92C1026.78,985.304 1023.22,982.859 1019.51,980.59C1014.57,977.572 1010.05,975.666 1004.66,974.235Z" style="fill:white;"/>
            <path d="M1064.1,1007.5C1068.52,1006.88 1074.15,1004.35 1078.59,1003.89C1083.73,1003.37 1083.62,1013.83 1081.78,1016.61C1077.57,1022.95 1065.5,1011.34 1064.1,1007.5Z" style="fill:white;"/>
            <path d="M1063.77,1005.21C1068.22,1004.58 1073.89,1002.05 1078.36,1001.59C1081.58,1001.26 1083.75,1003.39 1084.69,1006.71C1085.78,1010.53 1085.04,1015.88 1083.71,1017.89C1081.35,1021.44 1077.29,1021.49 1073.08,1019.3C1068.02,1016.68 1062.87,1010.87 1061.92,1008.29C1061.68,1007.64 1061.75,1006.91 1062.11,1006.31C1062.47,1005.71 1063.08,1005.31 1063.77,1005.21ZM1067.79,1009.06C1069.54,1011.18 1072.43,1013.75 1075.21,1015.19C1076.14,1015.68 1077.05,1016.03 1077.91,1016.13C1078.68,1016.22 1079.38,1016.04 1079.85,1015.33C1080.15,1014.87 1080.34,1014.09 1080.47,1013.2C1080.71,1011.56 1080.69,1009.58 1080.24,1007.98C1080.08,1007.43 1079.89,1006.94 1079.6,1006.56C1079.41,1006.32 1079.17,1006.16 1078.83,1006.19C1075.48,1006.54 1071.46,1008.07 1067.79,1009.06Z" style="fill:white;"/>
        </g>
    </g>
</svg>
